#!OML:ASF F:\VICON\USERDATA\INSTALL\rory3\rory3.ASF
:FULLY-SPECIFIED
:DEGREES
879
root 2.63676 17.9871 5.34297 50.7747 264.754 -50.6689
lowerback 18.8781 -0.268524 -1.8286
upperback 1.37125 -0.534545 3.74611
thorax -9.06076 -0.162579 5.2942
lowerneck -13.7435 -0.436408 -2.10414
upperneck 13.7924 0.410121 -4.01082
head 6.47231 -0.288648 -0.90669
rclavicle -3.97569e-016 1.11319e-014
rhumerus -53.7052 -13.3998 -66.5323
rradius 90.0658
rwrist 21.5576
rhand -28.7246 6.5426
rfingers 7.12502
rthumb -2.08574 -23.427
lclavicle -3.97569e-016 1.11319e-014
lhumerus -47.6622 4.04905 82.4699
lradius 50.9144
lwrist 4.53689
lhand -11.6966 49.9383
lfingers 7.12502
lthumb 14.3494 79.4224
rfemur -14.5912 -4.99401 20.7636
rtibia 39.3878
rfoot -25.0335 -15.0195
rtoes 28.6081
lfemur -11.0654 -4.87348 -25.3178
ltibia 27.0581
lfoot -13.5166 0.155012
ltoes -2.59463
880
root 2.64008 17.9897 5.32846 49.445 264.712 -49.3712
lowerback 18.926 -0.429186 -1.63718
upperback 1.40459 -0.708565 3.77899
thorax -9.03407 -0.255981 5.26611
lowerneck -13.5884 -0.392928 -1.78485
upperneck 13.7007 0.437056 -4.28792
head 6.41753 -0.279218 -1.04376
rclavicle -6.36111e-015 0
rhumerus -54.0347 -12.7983 -66.925
rradius 92.3879
rwrist 23.4447
rhand -28.6867 6.24949
rfingers 7.12502
rthumb -2.04917 -23.7204
lclavicle -6.36111e-015 0
lhumerus -47.8648 4.25963 82.4187
lradius 50.8498
lwrist 4.43527
lhand -12.0634 50.066
lfingers 7.12502
lthumb 13.9959 79.5748
rfemur -14.4796 -4.71528 20.8497
rtibia 39.3237
rfoot -25.3565 -14.74
rtoes 30.009
lfemur -11.0519 -4.82287 -25.2181
ltibia 27.1207
lfoot -13.5678 0.13946
ltoes -3.08643
881
root 2.64222 17.9909 5.2951 44.1829 264.519 -44.0261
lowerback 18.8743 -0.591075 -1.62804
upperback 1.41109 -0.910762 3.95649
thorax -8.97522 -0.353516 5.50834
lowerneck -13.4653 -0.208312 -2.12713
upperneck 13.6588 0.725649 -4.14473
head 6.38644 -0.144888 -0.914289
rclavicle -2.26615e-014 9.54166e-015
rhumerus -54.3198 -11.6609 -67.2602
rradius 94.8339
rwrist 24.9537
rhand -28.1596 5.39257
rfingers 7.12502
rthumb -1.54009 -24.5816
lclavicle -2.26615e-014 9.54166e-015
lhumerus -48.1773 5.22102 82.1257
lradius 50.7155
lwrist 4.24885
lhand -11.9055 49.9285
lfingers 7.12502
lthumb 14.148 79.4267
rfemur -14.5103 -3.91984 21.2411
rtibia 39.2356
rfoot -25.3625 -14.9261
rtoes 30.1296
lfemur -11.174 -4.27625 -24.8272
ltibia 27.293
lfoot -13.7083 -0.043406
ltoes -2.37654
882
root 2.64755 17.989 5.26764 39.5672 264.061 -39.3585
lowerback 18.9284 -0.689158 -1.64281
upperback 1.41963 -1.03932 4.0619
thorax -8.98007 -0.414472 5.66963
lowerneck -13.2798 -0.156559 -3.06838
upperneck 13.4498 0.867602 -3.50593
head 6.28436 -0.0649919 -0.542144
rclavicle -4.09496e-014 5.40694e-014
rhumerus -54.6289 -10.6895 -67.6264
rradius 97.1527
rwrist 26.3954
rhand -27.5069 5.17889
rfingers 7.12502
rthumb -0.909655 -24.7989
lclavicle -4.09496e-014 5.40694e-014
lhumerus -48.4778 5.85328 81.9753
lradius 50.693
lwrist 5.05362
lhand -12.3741 49.7058
lfingers 7.12502
lthumb 13.6965 79.2351
rfemur -14.6018 -3.45283 21.3966
rtibia 39.2009
rfoot -25.0565 -14.8884
rtoes 29.3818
lfemur -11.2229 -4.52664 -24.7071
ltibia 27.4187
lfoot -13.8739 0.698984
ltoes -1.84134
883
root 2.66819 17.9849 5.2337 36.3292 263.531 -35.8924
lowerback 18.9937 -0.564711 -1.87453
upperback 1.33676 -0.913023 4.14021
thorax -9.11691 -0.336908 5.86456
lowerneck -13.4711 -0.0541179 -2.7488
upperneck 13.6538 1.03172 -3.99627
head 6.38772 -0.0199302 -0.737111
rclavicle -1.82882e-014 3.18055e-014
rhumerus -54.9967 -10.4495 -67.946
rradius 99.1111
rwrist 28.3886
rhand -26.8687 5.54825
rfingers 7.12502
rthumb -0.293274 -24.4313
lclavicle -1.82882e-014 3.18055e-014
lhumerus -48.5978 5.7836 82.1175
lradius 50.6384
lwrist 6.16438
lhand -13.5845 49.6868
lfingers 7.12502
lthumb 12.5297 79.2911
rfemur -14.9521 -3.23085 21.5273
rtibia 39.1816
rfoot -24.6994 -14.6644
rtoes 28.7168
lfemur -11.5448 -4.22525 -24.5604
ltibia 27.5545
lfoot -13.9593 0.904834
ltoes -0.910943
884
root 2.66148 17.9834 5.22284 33.4323 263.002 -33.2665
lowerback 19.1985 -0.456861 -1.75874
upperback 1.4739 -0.761124 4.08828
thorax -9.09796 -0.276218 5.70329
lowerneck -13.4704 -0.183133 -2.3704
upperneck 13.6796 0.815577 -4.21726
head 6.39574 -0.123588 -0.889873
rclavicle -4.37326e-015 -3.18055e-014
rhumerus -55.3413 -10.5924 -68.2912
rradius 100.941
rwrist 30.6788
rhand -26.3064 5.38252
rfingers 7.12502
rthumb 0.249792 -24.5971
lclavicle -4.37326e-015 -3.18055e-014
lhumerus -48.6294 5.8027 82.0428
lradius 50.4882
lwrist 5.72665
lhand -13.047 49.3562
lfingers 7.12502
lthumb 13.0479 78.9281
rfemur -14.7124 -3.15011 21.4317
rtibia 39.192
rfoot -24.5629 -14.2129
rtoes 28.8642
lfemur -11.1717 -4.81494 -24.6805
ltibia 27.6123
lfoot -14.1568 1.93421
ltoes 0.320477
885
root 2.66278 17.9853 5.19729 31.6977 262.575 -31.5824
lowerback 19.2235 -0.438633 -1.94222
upperback 1.54795 -0.776562 4.16794
thorax -9.02511 -0.280228 5.90115
lowerneck -13.5368 -0.345251 -2.70557
upperneck 13.8084 0.608623 -3.82131
head 6.4438 -0.211148 -0.728804
rclavicle -2.90226e-014 2.70347e-014
rhumerus -55.5139 -10.242 -68.5484
rradius 102.679
rwrist 32.7006
rhand -25.7891 4.79195
rfingers 7.12502
rthumb 0.749412 -25.1865
lclavicle -2.90226e-014 2.70347e-014
lhumerus -48.6009 6.30185 81.8506
lradius 50.2997
lwrist 4.93041
lhand -12.2222 49.5679
lfingers 7.12502
lthumb 13.8428 79.0873
rfemur -14.645 -2.87689 21.4548
rtibia 39.1819
rfoot -24.6168 -13.9379
rtoes 29.3834
lfemur -11.0834 -4.75874 -24.6577
ltibia 27.6584
lfoot -14.2404 2.10025
ltoes 1.96341
886
root 2.66382 17.9851 5.17323 30.9448 262.119 -30.8331
lowerback 19.1826 -0.468219 -2.15819
upperback 1.61721 -0.868231 4.14126
thorax -8.91281 -0.321672 6.01661
lowerneck -13.6867 -0.515098 -3.00297
upperneck 13.9669 0.379477 -3.36098
head 6.51681 -0.302392 -0.555783
rclavicle -7.15625e-015 -2.06736e-014
rhumerus -55.5346 -9.97788 -68.8158
rradius 104.242
rwrist 34.4656
rhand -25.1198 4.21686
rfingers 7.12502
rthumb 1.3959 -25.7583
lclavicle -7.15625e-015 -2.06736e-014
lhumerus -48.614 6.51126 81.6246
lradius 50.2273
lwrist 4.88336
lhand -11.9937 49.8112
lfingers 7.12502
lthumb 14.0631 79.3154
rfemur -14.6612 -2.60368 21.3635
rtibia 39.1993
rfoot -24.6023 -13.7036
rtoes 29.7147
lfemur -11.0405 -4.45578 -24.764
ltibia 27.6465
lfoot -14.3158 2.35974
ltoes 0.788575
887
root 2.66596 17.9831 5.14852 28.7842 261.735 -28.6917
lowerback 19.2527 -0.384292 -2.02708
upperback 1.60366 -0.734472 4.07697
thorax -8.98456 -0.26157 5.83714
lowerneck -13.6196 -0.806018 -3.04324
upperneck 14.1784 -0.0583318 -3.02934
head 6.57083 -0.490926 -0.485304
rclavicle 4.77083e-015 -3.18055e-015
rhumerus -55.8615 -10.3904 -68.9566
rradius 105.792
rwrist 36.4073
rhand -24.4883 3.55986
rfingers 7.12502
rthumb 2.0058 -26.4105
lclavicle 4.77083e-015 -3.18055e-015
lhumerus -48.6491 6.34494 81.4348
lradius 50.0266
lwrist 4.7035
lhand -12.171 49.5774
lfingers 7.12502
lthumb 13.8922 79.0934
rfemur -14.6807 -2.38087 21.4946
rtibia 39.2624
rfoot -24.7005 -13.3572
rtoes 30.0873
lfemur -10.9602 -3.89741 -24.6441
ltibia 27.6207
lfoot -14.3249 2.65343
ltoes -2.32581
